<svg xmlns="http://www.w3.org/2000/svg" viewBox="0 0 512 512" width="512" height="512"><path d="m0 0 3.683594-.0625c6.569241-.028346 12.148652.44731 18.367676 2.59961 2.50044.85958 4.95619 1.248272 7.57373 1.58789 4.912485.82336 8.712757 2.526956 13.070313 4.886719 3.111868 1.585952 6.285431 2.636831 9.617187 3.660156C54.125 13.25 54.125 13.25 56.125 14.25v2h4v2l6 1v2l3 .125c4.30857.577979 6.927298 2.774512 10.203125 5.5 1.857686 1.57604 1.857686 1.57604 4.796875 2.375v2l2.9375.8125L90.125 33.25l1 3 2.5 1 2.5 1 1 3c1.799326 1.067167 1.799326 1.067167 4 2 2.6875 1.375 2.6875 1.375 5 3l.5 2.0625.5 1.9375c2.361861 1.261458 2.361861 1.261458 5 2 3.388471 1.12949 4.196942 2.122832 6.4375 4.8125 1.942173 2.300159 3.840792 4.458656 6 6.5625 1.5625 1.625 1.5625 1.625 1.5625 3.625l1.9375.8125c2.0625 1.1875 2.0625 1.1875 3.0625 4.1875 1.321643.689553 2.656399 1.354277 4 2 1.457031 1.515625 1.457031 1.515625 2.8125 3.25 2.055738 2.505108 4.117557 4.635444 6.625 6.6875 3.990522 3.322543 7.220023 7.101509 10.5625 11.0625.976837 1.138903 1.954792 2.276848 2.933594 3.414063 5.449949 6.335555 5.449949 6.335555 7.641601 8.918945.956333 1.118889 1.924697 2.227597 2.904297 3.326172 3.520508 4.016005 3.520508 4.016005 3.520508 7.34082l1.75.5625c2.439098 1.558312 2.987393 2.503274 4.3125 5 1.572381 3.68867 1.572381 3.68867 4.9375 4.4375 1.027344 1.671875 1.027344 1.671875 1.9375 3.75 1.91339 4.083365 3.881863 8.159681 8.0625 10.25 1.862934 3.083478 3.582564 6.210222 5.265625 9.394531l1.296875 2.417969 1.191406 2.269531c1.256303 2.210428 1.256303 2.210428 4.246094 3.917969.958417 2.801527 1.18148 4.406068.3125 7.25-1.3125 1.75-1.3125 1.75-3.4375 2.5l-1.875.25-.4375 2.3125c-1.130068 5.399212-1.130068 5.399212-4.5625 7.6875-1.04193 1.712596-1.04193 1.712596-1.875 3.6875-2.000402 4.184046-4.184819 7.710778-7.125 11.3125-2.15625.691406-2.15625.691406-4 1l-.25 1.625c-1.724889 5.462148-5.54783 9.615164-9.75 13.375h-2l-.4375 2.875c-.5625 3.125-.5625 3.125-1.5625 5.125h-2v2h-2l-.816406 1.765625c-1.189464 2.245457-2.489429 4.041323-4.121094 5.984375l-1.527344 1.859375C156.125 232.25 156.125 232.25 153.125 232.25l-.792969 1.722656c-3.288442 6.204407-9.147355 14.861178-15.894531 17.214844l-2.3125 1.0625-.8125 2.75c-1.517258 4.152495-3.597731 5.347963-7.152344 7.792969-1.855343 1.328297-3.349228 2.677913-4.910156 4.332031-2.125 2.125-2.125 2.125-4.125 2.125l-1 3c-4.457143 4-4.457143 4-7 4v2h-2l-1 4-4 1v2c-1.644531 1.472656-1.644531 1.472656-3.8125 3.0625l-2.144531 1.597656C94.125 291.25 94.125 291.25 91.125 292.25v2c-1.41606.792751-2.832876 1.584153-4.25 2.375l-2.390625 1.335938C82.125 299.25 82.125 299.25 79.953125 300.226563c-2.158782 1.026444-2.158782 1.026444-3.828125 4.023437-3.125 1.1875-3.125 1.1875-6 2v2c-9.410023 4.592255-9.410023 4.592255-14 4l-1 3c-2.039063.808594-2.039063.808594-4.625 1.4375-3.356538.82106-5.687323 1.750189-8.683594 3.550781C37.91859 322.5554 34.128124 323.309327 29.6875 324c-.731543.12504-1.463086.250078-2.216797.378906-1.779887.302465-3.562548.58853-5.345703.871094v2c-3.569274 1.189758-6.79947 1.124782-10.511719 1.097656l-2.206741-.004287c-2.323055-.005592-4.646014-.018143-6.96904-.030869a8075.352232 8075.352232 0 0 0-4.728516-.013672c-3.861365-.011018-7.722658-.028277-11.583984-.048828v-2h-8v-2l-2.28125.027344c-14.36985-.4011-26.27548-7.563108-38.609375-14.328125-2.350737-1.284637-4.70234-2.525492-7.109375-3.699219v-2h-2v-2l-2.3125-.3125c-2.986538-.763998-3.654422-1.485-5.6875-3.6875l-2.1875-1.3125c-2.426534-1.45592-4.706677-2.971481-7-4.625l-2.042969-1.464844c-1.914696-1.728721-2.668092-3.297306-3.769531-5.597656-1.946033-.5907-1.946033-.5907-4-1-1.75-1.4375-1.75-1.4375-3-3v-2l-2.0625-.625c-6.412902-3.001784-10.860275-8.22023-15.261719-13.640625-1.57474-1.822982-1.57474-1.822982-3.675781-2.730469-2.445798-1.227676-3.60766-2.688407-5.3125-4.816406-2.251074-2.674352-4.337604-4.816994-7.25-6.75-4.869438-3.242652-8.116107-7.749054-11.6875-12.3125-1.576545-2.207497-1.576545-2.207497-3.75-3.125v-2h-2c-1.967037-2.72847-3.722658-5.508348-5.375-8.4375-2.9042-4.5797-6.480035-8.493866-10.4375-12.1875-2.352396-2.55403-2.895272-3.965672-3.1875-7.375h-2c-5-5.357143-5-5.357143-5-9l-3-1c-2.080971-2.341093-3.805505-4.664054-5.375-7.375-1.402036-2.264828-2.789113-3.97744-4.5625-5.9375-2.708412-3.069534-4.424412-6.131119-6.109375-9.84375-.991975-2.11134-.991975-2.11134-3.328125-4.46875-1.625-2.375-1.625-2.375-1.0625-5.625 1.4375-2.75 1.4375-2.75 4.4375-3.75l1.4375-3.4375c1.705522-3.888591 2.040222-3.91877 5.5625-5.5625.382188-1.656147.713951-3.32457 1-5 1.375-1.5 1.375-1.5 3-3 1.018662-1.655326 2.018108-3.322601 3-5 1.5625-2.3125 1.5625-2.3125 3-4h2l.3125-1.742188c.801762-2.633059 1.984884-4.229984 3.6875-6.382812 2.210552-2.803977 2.210552-2.803977 4-5.875h2l.625-2c1.866243-4.071802 4.350615-7.68797 7.375-11h2l.6875-1.5625c3.609107-6.702628 8.32908-12.025374 14.25-16.8125 2.251766-1.8335 4.091828-3.759184 5.9375-6 2.207254-2.676512 4.527077-4.89883 7.1875-7.125 2.70373-2.271956 4.70338-4.414013 6.625-7.375 2.3125-3.125 2.3125-3.125 5.125-4.0625l2.1875-.0625 1-3h2v-2l1.9375-1.4375c2.34623-1.471637 2.34623-1.471637 3.0625-4.5625l5-1v-2c1.574219-1.367188 1.574219-1.367188 3.6875-2.875 2.465622-1.780485 4.839906-3.560683 7.1875-5.5 2.125-1.625 2.125-1.625 4.125-1.625v-2h2l.625-1.8125c1.901958-3.025843 4.128004-3.834585 7.375-5.1875h2v-2l5-1v-3c3.370974-1.49821 5.204421-2 9-2v-2c2.685666-1.441015 5.37342-2.87788 8.0625-4.3125l2.279297-1.22461C-46.096473 10.28554-39.889861 7.321417-32.75 5.625l3.007813-.726563C-27.126473 4.306874-24.5075 3.761071-21.875 3.25v-2C-14.584112.12273-7.368816.03106 0 0Z" transform="translate(254.875 91.75)" style="fill:#025bf5"/><path d="M0 0c1.172402.000645 2.344805.00129 3.552734.001953C10.321824.03597 16.968908.352122 23.6875 1.1875v2l1.941406.296875C31.523011 4.503326 35.623551 6.047852 40.6875 9.1875c2.269859.760406 2.269859.760406 4 1v2L47.375 13c3.103467 1.112564 5.623607 2.289458 8.3125 4.1875v2l2.0625.582031c4.092694 1.975596 6.790685 4.874604 9.9375 8.105469l1.828125 1.81836C83.6875 44.03468 83.6875 44.03468 83.6875 51.1875h2l.585938 1.863281c.26039.808242.52078 1.616485.789062 2.449219l.773438 2.425781c.83988 2.488964.83988 2.488964 2.851562 5.261719 1.50387 6.60189 1.06351 13.267844 1 20h-16l-1 4h-2c-.05946 3.898816-.099506 7.532899 2.308594 10.746094 3.397131 2.769486 6.06805 3.582622 10.441406 3.253906 3.421917-.47859 4.99819-1.377638 7.25-4-.161874 11.198741-1.935498 20.561279-6 31h-2v3h-2L82.5 134.125c-.668758 4.944756-3.238407 8.873662-5.8125 13.0625h-2l-.820313 1.746094c-1.192436 2.278264-2.521063 4.254357-4.054687 6.316406l-1.492188 2.035156c-1.723203 2.007656-3.416373 3.462108-5.632812 4.902344h-2v2c-10.25641 8-10.25641 8-15 8v2l-2.9375.6875c-3.155126.887778-5.785512 2.180997-8.625 3.8125-16.415257 9.427682-38.68225 6.401207-56.4375 2.5l-3.050781-.644531c-1.987974-.429749-3.969865-.887622-5.949219-1.355469v-2l-1.5625-.3125c-4.128664-1.164495-8.065522-2.648123-11.5-5.25-2.000998-1.648895-2.000998-1.648895-5.125-2.4375l-2.8125-1-1-3-2.9375-.9375c-3.0625-1.0625-3.0625-1.0625-4.3125-3.125l-.75-1.9375-2-1v-2l-1.9375-.75c-2.606801-1.57988-2.35445-2.417803-3.0625-5.25-1.849717-1.050211-1.849717-1.050211-4-2-2.94866-2.358929-3.889206-3.519895-4.75-7.25l-.25-2.75h-2c-3.326385-4.267315-5.108937-8.56138-6.625-13.75l-.641357-2.136963c-2.501907-8.493646-4.020324-16.225936-3.733643-25.113037l3 2v2c6.859671.59795 6.859671.59795 13-2l2-2h2v-10h-2l-1-4h-14l-2 4h-1c.423697-7.838387.922279-15.411801 3-23l.539063-2.03125c.666503-2.427266 1.332797-4.71247 2.460937-6.96875h2l1-8h2l.6875-2.125c1.650913-3.616285 3.603384-5.9627 6.3125-8.875h2l.8125-2.25c1.140268-2.64062 2.281303-4.605528 4.1875-6.75h2L-62.5 25.25c1.1875-2.0625 1.1875-2.0625 4.1875-3.0625v-2l1.9375-.3125 2.0625-.6875 1-3c3.32091-1.705332 5.184928-2 9-2v-2c5.411765-4 5.411765-4 8-4v-2l3.253906-.804688A51158.958566 51158.958566 0 0 0-28.75 4.3125l2.134766-.527344 2.11914-.527344 2.15796-.531005c1.76473-.469843 3.497728-1.0558 5.220947-1.6604C-11.419155-.249875-5.826628-.060266 0 0Z" transform="translate(255.3125 163.8125)" style="fill:#fbfcfe"/><path d="m0 0 2.53711-.023438C6.98657-.009345 10.374608.25549 14.4375 2.25c2.327487.6868 4.659867 1.35761 7 2v3l2.625.1875c6.877835 1.655775 10.826726 7.025717 14.375 12.8125 6.284648 11.261751 7.615148 25.869357 4.373047 38.42871C40.513506 64.822026 37.11762 69.676688 32.4375 74.25l-1.875 3.1875c-2.125 2.8125-2.125 2.8125-5.375 3.6875l-2.75.125-1 3c-2.90625.914063-2.90625.914063-6.5 1.625-4.069775.506166-4.069775.506166-7.5 2.375-23.592255 1.300951-23.592255 1.300951-33-7l-2-.4375c-4.749166-1.335703-8.183842-6.71375-11-10.5625-1.031616-1.983877-2.035236-3.982767-3-6l-2-3c-.07905-2.331994-.087988-4.668326 0-7h-2c-.058008-3.6041-.093599-7.208079-.125-10.8125l-.050781-3.103516-.019531-2.978515-.031739-2.745362C-45.5625 32.25-45.5625 32.25-43.5625 29.25c2.609375-.222656 2.609375-.222656 5.75-.0625 7.488513.151734 12.150025-1.085062 17.703125-6.183594C-14.833188 17.021563-15.186216 9.83142-15.5625 2.25-10.279598.085299-5.60958-.052061 0 0Z" transform="translate(257.5625 211.75)" style="fill:#025df7"/><path d="m0 0 3.683594-.0625C11.023502-.094172 17.250907.617875 24.125 3.25c-3.668727 1.222909-6.839605.909616-10.625.625l-2.101563-.132813C6.25558 3.38058 6.25558 3.38058 5.125 2.25c-1.686193-.028907-3.373718.0133-5.058594.085938l-3.107422.132812L-6.3125 2.625l-3.259766.132813C-14.893658 2.77375-14.893658 2.77375-19.875 4.25c-1.9996.039992-4.000472.043468-6 0l4-1v-2C-14.584112.12273-7.368816.03106 0 0Z" transform="translate(254.875 91.75)" style="fill:#3847c0"/><path d="m0 0 3.466797-.007813 3.638672.023438 3.603515-.023438L14.1875 0l3.182861.006836c3.002858.265895 5.201515.995615 7.922608 2.258789v2l-2.902344-.988281c-4.560822-1.299978-8.94819-1.269547-13.660156-1.199219-.824356.000645-1.648711.00129-2.498047.001953-4.4188.03179-8.590937.304567-12.939453 1.185547l1 3c.568424 6.593726-.667577 11.269583-4 17-2.25 2.5625-2.25 2.5625-4 4l-2-1 2.375-2.125c5.099182-5.584819 4.95073-11.808512 5.28125-19.046875C-7.401646-.246863-4.712353.010154 0 0Z" transform="translate(248.707031 210.734375)" style="fill:#95bbfb"/><path d="m0 0 2.515625.4375C16.30464 2.514506 30.085837 2.190645 44 2c-3.643049 2.4287-6.307223 2.256757-10.511719 2.195313l-2.206741-.008576c-2.323181-.011184-4.645975-.036285-6.96904-.061737a4037.792574 4037.792574 0 0 0-4.728516-.027344C15.722507 4.07562 11.86132 4.041101 8 4V2H0V0Z" transform="translate(233 416)" style="fill:#6b358e"/><path d="M0 0c3.024528 2.016352 3.631148 2.757908 5.125 5.875l1.007813 2.054688C8.57402 13.757797 8.220388 19.64912 8.25 25.875l.0625 3.261719C8.341064 34.927986 8.236576 39.111067 5 44c-1.09659-3.289768-.799531-4.713038 0-8h2c-.113967-15.495146-.113967-15.495146-5-30C1.312751 4.006979.63484 2.010329 0 0Z" transform="translate(293 230)" style="fill:#307ef8"/><path d="m0 0 3.433594.984375C8.020489 2.127313 12.35391 2.297925 17.0625 2.25l2.314453.023438C24.30112 2.256588 28.31695 1.503347 33 0h2v2h-5v2C21.401046 5.563446 12.598954 5.563446 4 4V2L0 1V0Z" transform="translate(239 297)" style="fill:#83b0fa"/><path d="M0 0c-8.58019 4.111341-16.623624 4.155124-26 4 2.910549-2.476673 4.89819-3.414138 8.695313-3.765625l2.667968-.257813L-11.875-.25l2.785156-.273438C-2.285792-1.142895-2.285792-1.142895 0 0Z" transform="translate(286 344)" style="fill:#accafc"/><path d="m0 0 3.011719-.03711 2.917969-.005859c.8764-.004109 1.752802-.008218 2.655761-.01245C11.402426.214036 13.558186 1.02451 16.125 2.1875v2l-2.898438-.988281C8.645952 1.893272 4.232233 1.929756-.5 2c-.832734.000645-1.665469.00129-2.523438.001953-4.073505.02919-7.879062.172154-11.851562 1.185547C-12.493256-1.575988-4.606318.002964 0 0Z" transform="translate(257.875 210.8125)" style="fill:#5f9af9"/><path d="m0 0 1.730469.367188C8.785907 1.825386 15.873373 2.949994 23 4v1c-2.709128-.11464-5.416797-.241372-8.125-.375l-2.304688-.09375C8.053679 4.297631 4.258477 3.673459 0 2V0Z" transform="translate(227 343)" style="fill:#70a5fa"/><path d="M0 0v2l-1.863281.367188L-4.3125 2.875l-2.425781.492188C-9.253011 3.94479-9.253011 3.94479-12 6c-2.042969.195313-2.042969.195313-4.1875.125L-20 6c2.842651-2.842651 6.201875-3.22859 10-4.125l2.234375-.550781C-2.309445 0-2.309445 0 0 0Z" transform="translate(297 412)" style="fill:#9f225c"/><path d="m0 0-1.3125 1.539063C-4.989373 5.99743-4.989373 5.99743-6.375 11.5L-6 14l-2-1V4h2l.3125-1.9375L-5 0c3-1 3-1 5 0Z" transform="translate(336 247)" style="fill:#5795f9"/><path d="M0 0c2 2 2 2 2.195313 4.601563L2.125 7.625l-.054688 3.039063L2 13H0l-.8125-2.4375L-2 8l-3-1c2-1 2-1 5 0V0Z" transform="translate(347 240)" style="fill:#79aafa"/><path d="m0 0 4 1C.240521 4.759479-4.871103 4.135806-9.914063 4.230469-12 4-12 4-15 2H0V0Z" transform="translate(229 238)" style="fill:#9dc0fb"/><path d="m0 0 16 2v2H8V2H0V0Z" transform="translate(233 416)" style="fill:#5a3b9e"/><path d="m0 0 3 1c.08122 1.603328.139291 3.20784.1875 4.8125l.105469 2.707031C3 11 3 11 0 14V0Z" transform="translate(347 260)" style="fill:#4188f8"/><path d="M0 0c4.424651 2.949767 6.402853 7.112157 7.476563 12.304688C7.712198 14.196507 7.864172 16.098405 8 18c-2.556251-2.24295-3.583024-4.071834-4.5625-7.3125l-.742188-2.390625L2 6 .8125 2.4375 0 0Z" transform="translate(293 230)" style="fill:#5d99f9"/><path d="m0 0 2 1-2 10h-2l-1 4c.114187-1.938167.241734-3.875551.375-5.8125l.210938-3.269531C-2 3-2 3 0 0Z" transform="translate(171 219)" style="fill:#9bbffb"/><path d="M0 0c-6.062244 3.324456-13.139384 4.361085-20 4l4-1V1C-10.59256.227509-5.461378-.097525 0 0Z" transform="translate(249 92)" style="fill:#8c296e"/><path d="M0 0c4.5 4.5 4.5 4.5 4.75 9.25l.171875 2.703125L5 14H3L0 0Z" transform="translate(342 223)" style="fill:#8cb6fb"/><path d="m0 0 1 2C-.3125 4.625-.3125 4.625-2 7h-2l-.375 1.9375L-5 11l-2 1V8h2l.8125-2.3125C-3.055759 3.126191-2.087766 1.80307 0 0Z" transform="translate(181 203)" style="fill:#8ab5fa"/><path d="m0 0 2 1C-.030591 6.753342-2.080294 9.392216-7 13c1.456688-2.967831 3.01232-5.864153 4.625-8.75l1.351563-2.421875L0 0Z" transform="translate(437 288)" style="fill:#b91843"/><path d="M0 0c4.875 1.875 4.875 1.875 6 3 2.670589.141152 5.324322.042471 8 0v2H3V3L0 2V0Z" transform="translate(330 262)" style="fill:#a5c6fb"/><path d="m0 0 3 2-1 13H1C-.035902 9.949978-.102517 5.125836 0 0Z" transform="translate(165 261)" style="fill:#b0cdfc"/><path d="M0 0v1l-2.371094.402344L-5.4375 1.9375l-3.058594.527344C-10.928744 2.74751-10.928744 2.74751-12 4c-1.666171.040638-3.33388.042721-5 0C-11.74397-.47736-6.59323-.11175 0 0Z" transform="translate(250 164)" style="fill:#a8c8fb"/><path d="M0 0c1.668705.322975 3.334653.660133 5 1l2.300781.441406L9.75 1.9375l2.359375.464844L14 3l1 2c-1.939568-.255602-3.87666-.530046-5.8125-.8125l-3.269531-.457031C2.93559 2.983876 1.857765 2.379243 0 0Z" transform="translate(214 411)" style="fill:#7d2e7c"/><path d="M0 0c-2.64739 1.460629-3.894483 2-7 2v2h-6C-9.684922-.051762-5.010018-1.92693 0 0Z" transform="translate(310 408)" style="fill:#9a2461"/><path d="m0 0 2 1C1.095152 2.15519.17558 3.298854-.75 4.4375l-1.546875 1.933594C-4.196676 8.188106-5.435869 8.604232-8 9l1-3h2V4c1.626264-1.382324 3.2925-2.719375 5-4Z" transform="translate(369 364)" style="fill:#922769"/><path d="M0 0h2l1 2 3 1v2h2l1 4C5.727125 7.909042 4.955394 7.082055 2.8125 4.5L1.207031 2.59375C0 1 0 1 0 0Z" transform="translate(110 332)" style="fill:#7a2f80"/><path d="m0 0 2 1C.75 3.9375.75 3.9375-1 7c-2.1875.875-2.1875.875-4 1 1.371545-2.954097 2.988637-5.440084 5-8Z" transform="translate(94 197)" style="fill:#623797"/><path d="M0 0c1.5 1.375 1.5 1.375 3 3v2h2v4H3L2 4H0V0Z" transform="translate(336 210)" style="fill:#9dc1fb"/><path d="M0 0c3.375037 1.185824 5.647227 2.275737 8 5-2 1-2 1-5 0V3H1L0 0Z" transform="translate(146 368)" style="fill:#a0215b"/><path d="M0 0c3.795889.54227 5.47212 2.201276 8 5-3.4375-.8125-3.4375-.8125-7-2L0 0Z" transform="translate(229 292)" style="fill:#9fc2fb"/><path d="m0 0 8 1 1 3C2.25 2.25 2.25 2.25 0 0Z" transform="translate(265 211)" style="fill:#94bbfb"/><path d="M0 0h10v2l2 1-9.375-1.5625L0 1V0Z" transform="translate(269 165)" style="fill:#98befb"/><path d="M0 0c3.820972.53069 6.061714 1.497016 9 4-6.75-.875-6.75-.875-9-2V0Z" transform="translate(215 338)" style="fill:#679ff9"/><path d="M0 0c1.9375.75 1.9375.75 4 2 .75 2.125.75 2.125 1 4-1.9375-.75-1.9375-.75-4-2C.25 1.875.25 1.875 0 0Z" transform="translate(91 310)" style="fill:#ac1d4f"/></svg>